<?xml version="1.0" encoding="UTF-8"?>
<svg width="50px" height="44px" viewBox="0 0 50 44" version="1.1" xmlns="http://www.w3.org/2000/svg" xmlns:xlink="http://www.w3.org/1999/xlink">
    <!-- Generator: sketchtool 42 (36781) - http://www.bohemiancoding.com/sketch -->
    <title>9974C5EA-DFDC-4A9B-9457-833F1C15DFB3</title>
    <desc>Created with sketchtool.</desc>
    <defs></defs>
    <g id="test-sme" stroke="none" stroke-width="1" fill="none" fill-rule="evenodd">
        <g id="test-sme-mobile" transform="translate(-19.000000, -13.000000)">
            <g id="logo_mobile" transform="translate(19.000000, 13.000000)">
                <path d="M48.7116438,20.6294521 L49.3513699,18.590411 L47.2342466,18.6575342 C47.0554795,18.6575342 45.7554795,18.6205479 44.4938356,17.710274 C44.5883562,17.7184932 44.6815068,17.7321918 44.7787671,17.7321918 C46.0767123,17.7321918 47.3342466,16.9541096 47.8369863,15.840411 L48.7472603,13.8294521 C47.6054795,13.8452055 46.5609589,13.7013699 46.5609589,13.7013699 C46.5520548,13.7 45.7294521,13.5938356 44.7773973,12.6267123 C44.0952055,11.9328767 43.2506849,11.5657534 42.3356164,11.5657534 C41.9349315,11.5657534 41.5773973,11.6383562 41.2691781,11.7349315 C41.3171233,11.5719178 41.3623288,11.4068493 41.3890411,11.2363014 C41.680137,9.35410959 40.4636986,7.91986301 40.4636986,7.92054795 L38.8705479,5.95753425 L37.8828767,8.26369863 C37.8794521,8.27054795 37.6294521,8.81164384 37.1849315,9.07534247 C37.05,8.39657534 36.7191781,7.63493151 36.0130137,6.90684932 C34.680137,5.53424658 33.0589041,5.32945205 32.210274,5.32945205 C31.8171233,5.32945205 31.5363014,5.37191781 31.4684932,5.38287671 L29.5465753,5.75890411 C29.6575342,5.33219178 29.8938356,4.5869863 30.3253425,3.91712329 L31.3863014,2.27260274 L28.7171233,2.57465753 L27.8671233,0.778082192 L26.2205479,1.62260274 L24.6979452,0.126027397 L23.180137,1.62260274 L21.530137,0.778082192 L20.6815068,2.57465753 L18.0136986,2.27191781 L19.0753425,3.91780822 C19.5082192,4.5869863 19.7438356,5.33013699 19.8534247,5.75616438 L18.0191781,5.39657534 L17.9561644,5.38630137 C17.8643836,5.37191781 17.5856164,5.32945205 17.190411,5.32945205 C16.3424658,5.32945205 14.7205479,5.53424658 13.3917808,6.90616438 C12.6835616,7.63424658 12.3520548,8.39657534 12.2171233,9.07534247 C11.7739726,8.81369863 11.5267123,8.28150685 11.5260274,8.28150685 L10.5369863,5.96232877 L8.91986301,7.9369863 C8.72191781,8.19178082 7.74726027,9.54109589 8.01232877,11.2383562 C8.03972603,11.4075342 8.08424658,11.5719178 8.13150685,11.7349315 C7.82465753,11.6369863 7.46712329,11.5657534 7.06712329,11.5657534 C6.15136986,11.5657534 5.30684932,11.9328767 4.62328767,12.6267123 C3.67465753,13.590411 2.85616438,13.6993151 2.8630137,13.6993151 C2.8630137,13.6993151 1.99726027,13.8541096 0.657534247,13.8294521 L1.56369863,15.840411 C2.06780822,16.9541096 3.3260274,17.7321918 4.62191781,17.7321918 C4.71986301,17.7321918 4.8130137,17.7184932 4.90890411,17.710274 C3.64931507,18.6205479 2.34931507,18.6575342 2.19246575,18.6589041 L0.0363013699,18.590411 L0.689726027,20.6294521 C1.01917808,21.6794521 2.11712329,23.419863 4.21986301,23.6075342 C3.99109589,24.5609589 3.48424658,25.6315068 2.36986301,26.0917808 L0.76369863,26.75 L1.63972603,28.2684932 C2.13356164,29.0876712 3.29520548,30.0452055 4.94726027,30.0452055 C5.30479452,30.0445205 5.65,30.0082192 5.98219178,29.9376712 C6.06712329,30.3116438 6.17328767,30.6869863 6.29931507,31.0589041 C6.79041096,32.5164384 6.36643836,33.5328767 6.36232877,33.5438356 L5.56917808,35.1972603 L7.3390411,35.6616438 C7.36164384,35.6684932 7.89589041,35.8150685 8.56575342,35.8150685 C8.86917808,35.8150685 9.16027397,35.7835616 9.43150685,35.7191781 C9.63767123,35.6712329 9.83561644,35.6075342 10.0253425,35.5308219 C10.2547945,35.939726 10.5328767,36.3130137 10.8575342,36.6472603 C11.9917808,37.8061644 13.6,38.3931507 15.6363014,38.3931507 L15.6424658,38.3931507 L17.0958904,38.3739726 L14.0931507,39.6171233 L16.3732877,40.7143836 C17.2020548,41.1157534 18.1835616,41.5910959 19.1842466,41.9547945 L18.8993151,42.7294521 L19.6856164,43.0863014 C19.7554795,43.1178082 21.2671233,43.790411 23.7787671,43.9342466 C23.7787671,43.9342466 24.3849315,43.9616438 24.7191781,43.9616438 C25.0534247,43.9616438 25.6520548,43.9321918 25.6520548,43.9321918 C28.1479452,43.7849315 29.6479452,43.1178082 29.7178082,43.0863014 L30.5054795,42.7287671 L30.2184932,41.9527397 C31.2465753,41.5780822 32.2657534,41.0842466 33.059589,40.6979452 L35.2972603,39.6164384 L32.3041096,38.3739726 L33.7636986,38.3931507 C35.8027397,38.3931507 37.4109589,37.8054795 38.5431507,36.6458904 C38.8664384,36.3143836 39.1445205,35.9410959 39.3746575,35.5308219 C39.5657534,35.6075342 39.7643836,35.6712329 39.9705479,35.719863 C40.2417808,35.7835616 40.5321918,35.8150685 40.8356164,35.8150685 C41.4938356,35.8150685 42.0342466,35.669863 42.0486301,35.6657534 L43.8267123,35.1972603 L43.0520548,33.5746575 C43.0342466,33.5328767 42.610274,32.5164384 43.1020548,31.0575342 C43.2273973,30.6856164 43.3321918,30.3109589 43.4184932,29.9376712 C43.7520548,30.0082192 44.1,30.0445205 44.460274,30.0452055 C46.5657534,30.0452055 47.5746575,28.5719178 47.7705479,28.2513699 L48.6376712,26.7493151 L47.0315068,26.0924658 C45.9150685,25.6315068 45.4089041,24.5623288 45.1821918,23.6089041 C47.2575342,23.4287671 48.3712329,21.6869863 48.7116438,20.6294521 M19.9917808,6.4609589 L19.9705479,6.46575342 L19.9883562,6.44178082 L19.9917808,6.4609589" id="Fill-1" fill="#FFFFFF"></path>
                <path d="M24.6986301,6.36986301 C22.9979452,6.37191781 21.7219178,6.9260274 21.4452055,7.57876712 L24.6986301,8.85753425 L27.9527397,7.57876712 C27.6780822,6.9260274 26.4020548,6.37191781 24.6986301,6.36986301" id="Fill-2" fill="#FFFFFF"></path>
                <path d="M24.7328767,40.1993151 L24.6671233,40.1993151 C23.6369863,40.2061644 22.2164384,39.9958904 21.5335616,39.7972603 L20.7109589,42.0123288 C21.2527397,42.2047945 23.0910959,42.5732877 24.7020548,42.5732877 C26.309589,42.5732877 28.1472603,42.2047945 28.6890411,42.0123288 L27.8678082,39.7972603 C27.1815068,39.9958904 25.7630137,40.2061644 24.7328767,40.1993151" id="Fill-3" fill="#FFFFFF"></path>
                <path d="M30.9589041,37.9952055 C30.3465753,38.3390411 28.9794521,38.8582192 28.1842466,39.0986301 L28.8520548,40.9280822 C30.0821918,40.5938356 31.0979452,40.2034247 31.9356164,39.7842466 L30.55,39.3260274 L30.9589041,37.9952055" id="Fill-4" fill="#FFFFFF"></path>
                <path d="M18.4417808,37.9952055 L18.8513699,39.3260274 L17.4650685,39.7842466 C18.3013699,40.2034247 19.3219178,40.5938356 20.5479452,40.9280822 L21.2157534,39.0986301 C20.4226027,38.8582192 19.0534247,38.3390411 18.4417808,37.9952055" id="Fill-5" fill="#FFFFFF"></path>
                <path d="M24.6986301,4.25136986 C25.9815068,4.25136986 27.2376712,4.55684932 28.2054795,5.09315068 C28.2938356,4.79794521 28.4178082,4.44041096 28.5849315,4.06506849 L28.2191781,4.10821918 L27.8356164,4.14863014 L27.6732877,3.80068493 L27.1835616,2.77260274 L26.2924658,3.23493151 L25.9452055,3.4109589 L25.6678082,3.13835616 L24.6986301,2.18424658 L23.7315068,3.13835616 L23.4547945,3.4109589 L23.1082192,3.23493151 L22.2116438,2.77260274 L21.7294521,3.80068493 L21.5636986,4.14863014 L21.1808219,4.10821918 L20.8157534,4.06506849 C20.9835616,4.44041096 21.1061644,4.79794521 21.1958904,5.09315068 C22.1664384,4.55684932 23.4219178,4.25136986 24.6986301,4.25136986" id="Fill-6" fill="#FFFFFF"></path>
                <path d="M44.2746575,16.1342466 C44.4410959,16.1917808 44.610274,16.2171233 44.7780822,16.2171233 C45.5041096,16.2171233 46.2047945,15.75 46.4458904,15.2164384 C46.4458904,15.2164384 45.1164384,15.1363014 43.6856164,13.6910959 C43.2308219,13.2232877 42.7486301,13.0828767 42.3356164,13.0828767 C41.6931507,13.0828767 41.2109589,13.419863 41.2109589,13.419863 C42.9390411,14.3356164 43.2910959,15.8041096 44.2746575,16.1342466" id="Fill-7" fill="#FFFFFF"></path>
                <path d="M4.62123288,16.2171233 C4.7890411,16.2171233 4.95821918,16.1917808 5.12123288,16.1342466 C6.10753425,15.8041096 6.4630137,14.3356164 8.18835616,13.4205479 C8.18835616,13.4205479 7.70547945,13.0828767 7.06643836,13.0828767 C6.65136986,13.0828767 6.16986301,13.2232877 5.71232877,13.6917808 C4.28424658,15.1363014 2.95479452,15.2171233 2.95479452,15.2171233 C3.19383562,15.75 3.89657534,16.2171233 4.62123288,16.2171233" id="Fill-8" fill="#FFFFFF"></path>
                <path d="M44.7424658,22.1020548 C44.7732877,22.1041096 44.7979452,22.1041096 44.8287671,22.1041096 C46.6390411,22.1041096 47.2520548,20.1746575 47.2520548,20.1746575 L47.2164384,20.1746575 C46.8849315,20.1746575 44.1938356,20.0965753 42.2910959,17.690411 C41.0390411,16.1082192 40.0123288,14.7164384 37.9863014,14.1691781 L37.7863014,14.1342466 L37.7431507,13.9321918 C37.6869863,13.6246575 37.9,13.3349315 38.3808219,13.0239726 C41.1780822,11.2013699 39.2780822,8.8760274 39.2780822,8.8760274 C39.2780822,8.8760274 38.4794521,10.7349315 36.6924658,10.7349315 C36.65,10.7349315 36.6047945,10.7328767 36.560274,10.7328767 C36.3575342,10.7219178 36.1609589,10.7143836 35.9643836,10.6726027 L35.6349315,10.609589 C35.6349315,10.609589 36.1445205,9.22945205 34.9143836,7.96369863 C33.9883562,7.00753425 32.8609589,6.84452055 32.210274,6.84452055 C31.8828767,6.84452055 31.6746575,6.8869863 31.6746575,6.8869863 C32.2924658,7.69041096 32.7390411,9.02465753 32.0260274,9.84726027 C31.4089041,10.5547945 29.9034247,10.5890411 29.9034247,11.6424658 C29.9034247,12.089726 30.3226027,12.610274 31.0753425,13.0780822 C33.3383562,14.4965753 35.5849315,16.3794521 36.519863,18.9020548 C37.6869863,22.0479452 36.3719178,24.1363014 34.4945205,25.3342466 C34.4945205,25.3342466 35.0842466,25.8739726 35.9369863,25.9424658 C36.1109589,25.959589 36.2808219,25.9671233 36.4390411,25.9671233 C38.2410959,25.9671233 39.1739726,25.1260274 39.1739726,25.1260274 C39.1739726,25.1260274 39.019863,26.2883562 38.0821918,27.3671233 C37.2164384,28.3636986 36.0815068,28.9506849 34.3479452,28.9753425 C34.3479452,28.9753425 34.2931507,29.7753425 35.060274,30.4678082 C35.5520548,30.9054795 36.6849315,31.0472603 36.6849315,31.0472603 C36.6849315,31.0472603 34.5623288,31.4760274 34.3280822,34.5965753 C34.2006849,36.2876712 33.7664384,36.8753425 33.7664384,36.8753425 L33.8041096,36.8753425 C38.7308219,36.8753425 38.6054795,32.669863 38.6054795,32.669863 C38.6047945,32.669863 38.9472603,33.9150685 40.3219178,34.239726 C40.4883562,34.2828767 40.6657534,34.3 40.8342466,34.3 C41.2767123,34.3 41.6616438,34.1958904 41.6616438,34.1958904 C41.6609589,34.1958904 40.9410959,32.6856164 41.6554795,30.5719178 C42.2479452,28.8178082 42.1520548,27.5184932 42.1520548,27.5184932 C42.1520548,27.5184932 42.8150685,28.5178082 44.4616438,28.5267123 L44.4780822,28.5267123 C45.8486301,28.5267123 46.4458904,27.4924658 46.4458904,27.4924658 C43.1609589,26.1356164 43.4849315,21.7561644 43.4849315,21.7561644 C43.4849315,21.7561644 43.9116438,22.0726027 44.7424658,22.1020548 M43.7541096,26.6787671 C42.4171233,26.0226027 41.5732877,24.2815068 41.3691781,23.6547945 C41.1472603,27.1068493 39.4547945,29.5020548 37.4753425,31.8082192 C36.4479452,33.0041096 36.089726,34.1657534 36.089726,34.1657534 C36.089726,34.1657534 36.2883562,32.8493151 37.1760274,31.7773973 C39.0226027,29.569863 40.7780822,26.8205479 40.9082192,23.6424658 C40.9972603,21.4239726 40.4253425,19.6253425 39.5308219,18.1424658 C40.0308219,19.6869863 39.959589,21.5773973 38.2616438,23.3417808 C38.2616438,23.3417808 41.6438356,19.3089041 36.9150685,15.1739726 C35.0232877,13.6 32.9520548,12.6287671 31.8863014,11.940411 C35.7376712,13.1910959 37.6178082,11.8136986 37.6178082,11.8136986 C36.3883562,12.8753425 34.7958904,12.8568493 33.8089041,12.7041096 C34.0767123,12.8335616 34.3554795,12.9691781 34.6547945,13.130137 C37.9020548,14.8849315 40.8205479,17.7739726 41.3178082,21.7732877 L41.3178082,21.7431507 C42.0732877,25.6705479 43.7541096,26.6787671 43.7541096,26.6787671" id="Fill-9" fill="#FFFFFF"></path>
                <path d="M12.7150685,31.0472603 C12.7150685,31.0472603 13.8493151,30.9054795 14.3410959,30.4678082 C15.1075342,29.7753425 15.0527397,28.9746575 15.0527397,28.9746575 C13.3191781,28.9506849 12.1849315,28.3636986 11.3136986,27.3678082 C10.3821918,26.2883562 10.2273973,25.1260274 10.2273973,25.1260274 C10.2273973,25.1260274 11.1589041,25.9671233 12.9589041,25.9671233 C13.1212329,25.9671233 13.2890411,25.959589 13.4630137,25.9424658 C14.3171233,25.8739726 14.9082192,25.3342466 14.9082192,25.3342466 C13.0287671,24.1369863 11.7130137,22.0479452 12.8794521,18.9013699 C13.8143836,16.380137 16.060274,14.4965753 18.3239726,13.0780822 C19.0760274,12.610274 19.4952055,12.089726 19.4952055,11.6431507 C19.4952055,10.5890411 17.9910959,10.5547945 17.3746575,9.84726027 C16.6616438,9.0239726 17.1089041,7.69041096 17.7246575,6.8869863 C17.7246575,6.8869863 17.519863,6.84520548 17.189726,6.84520548 C16.539726,6.84520548 15.4130137,7.00753425 14.4869863,7.96369863 C13.2541096,9.22945205 13.7657534,10.6089041 13.7657534,10.6089041 L13.4363014,10.6732877 C13.239726,10.7143836 13.0410959,10.7219178 12.839726,10.7328767 C12.7938356,10.7328767 12.7527397,10.7349315 12.7089041,10.7349315 C10.9171233,10.7349315 10.1232877,8.8760274 10.1232877,8.8760274 C10.1232877,8.8760274 8.2239726,11.2013699 11.0205479,13.0232877 C11.5013699,13.3349315 11.7130137,13.6246575 11.6575342,13.9321918 L11.6136986,14.1342466 L11.410274,14.1691781 C9.3869863,14.7171233 8.35958904,16.1082192 7.10684932,17.690411 C5.20547945,20.0965753 2.51712329,20.1746575 2.18287671,20.1746575 L2.14589041,20.1746575 C2.14589041,20.1746575 2.75958904,22.1041096 4.57054795,22.1041096 C4.59931507,22.1041096 4.62671233,22.1041096 4.65684932,22.1020548 C5.4890411,22.0726027 5.91643836,21.7554795 5.91643836,21.7554795 C5.91643836,21.7554795 6.23835616,26.1349315 2.95479452,27.4924658 C2.95479452,27.4924658 3.55273973,28.5267123 4.92260274,28.5267123 L4.9390411,28.5267123 C6.58561644,28.5178082 7.24863014,27.5184932 7.24863014,27.5184932 C7.24863014,27.5184932 7.15273973,28.8184932 7.74315068,30.5719178 C8.45753425,32.6863014 7.74109589,34.1965753 7.74109589,34.1965753 C7.74109589,34.1965753 8.1239726,34.2993151 8.56575342,34.2993151 C8.7369863,34.2993151 8.9130137,34.2828767 9.07739726,34.239726 C10.4506849,33.9150685 10.7945205,32.669863 10.7945205,32.669863 C10.7945205,32.669863 10.6684932,36.8753425 15.5958904,36.8753425 L15.6315068,36.8753425 C15.6315068,36.8753425 15.2006849,36.2876712 15.0732877,34.5958904 C14.839726,31.4760274 12.7150685,31.0472603 12.7150685,31.0472603 M11.9232877,31.8082192 C9.94520548,29.5020548 8.25273973,27.1068493 8.02876712,23.6547945 C7.82465753,24.2815068 6.98219178,26.0226027 5.64726027,26.6780822 C5.64726027,26.6780822 7.3260274,25.6705479 8.08082192,21.7424658 L8.08082192,21.7732877 C8.58013699,17.7739726 11.4972603,14.8849315 14.7458904,13.130137 C15.0431507,12.9691781 15.3239726,12.8335616 15.5910959,12.7041096 C14.6034247,12.8568493 13.0109589,12.8753425 11.7821918,11.8143836 C11.7821918,11.8143836 13.6630137,13.190411 17.5123288,11.940411 C16.4472603,12.6287671 14.3773973,13.6 12.4863014,15.1739726 C7.75616438,19.3089041 11.1390411,23.3424658 11.1390411,23.3424658 C9.43767123,21.5767123 9.36986301,19.6869863 9.86986301,18.1424658 C8.9739726,19.6253425 8.40068493,21.4239726 8.49315068,23.6424658 C8.62260274,26.8205479 10.3767123,29.569863 12.2205479,31.7780822 C13.1123288,32.8486301 13.3130137,34.1657534 13.3130137,34.1657534 C13.3130137,34.1657534 12.95,33.0041096 11.9232877,31.8082192" id="Fill-10" fill="#FFFFFF"></path>
                <path d="M21.0561644,15.6691781 C21.1369863,15.7554795 21.2164384,15.8493151 21.2931507,15.9431507 C21.3116438,15.9657534 21.3280822,15.9849315 21.3465753,16.0109589 C21.4171233,16.1041096 21.4883562,16.2034247 21.5568493,16.3047945 C21.5726027,16.3246575 21.5876712,16.3493151 21.6041096,16.3726027 C21.6856164,16.4965753 21.7643836,16.6246575 21.8417808,16.7568493 C22.5527397,17.9780822 23.6890411,18.7075342 24.6986301,18.709589 C25.7089041,18.7075342 26.8445205,17.9780822 27.5575342,16.7568493 C27.6363014,16.6212329 27.7164384,16.489726 27.7986301,16.3664384 C27.8109589,16.3493151 27.8239726,16.3308219 27.8349315,16.3130137 C27.9054795,16.2075342 27.9787671,16.1054795 28.0554795,16.0068493 C28.0719178,15.9849315 28.0876712,15.9657534 28.1027397,15.9472603 C28.1815068,15.8493151 28.2630137,15.7541096 28.3465753,15.6664384 C28.3609589,15.6520548 28.3732877,15.6390411 28.3863014,15.6273973 C28.7486301,15.2589041 29.180137,14.9773973 29.7445205,14.8219178 L29.4931507,14.6760274 L29.4794521,14.6760274 L28.4794521,14.0979452 L27.4513699,13.5123288 L24.7061644,14.9993151 L24.6986301,14.9938356 L24.6938356,14.9993151 L21.9472603,13.5123288 L20.9205479,14.0979452 L19.9184932,14.6760274 L19.9068493,14.6760274 L19.6534247,14.8219178 C20.2191781,14.9773973 20.6486301,15.2554795 21.0123288,15.6246575 C21.0280822,15.6390411 21.0390411,15.6554795 21.0561644,15.6691781 M23.5869863,15.55 L25.909589,15.55 L25.909589,16.3438356 C25.6369863,16.0109589 25.1047945,16.0780822 25.1047945,16.0780822 L25.1047945,17.2219178 C25.1047945,17.2219178 25.1246575,17.7842466 25.3226027,18.0280822 L24.1732877,18.0280822 C24.3746575,17.7842466 24.3924658,17.2219178 24.3924658,17.2219178 L24.3924658,16.0780822 C24.3924658,16.0780822 23.8623288,16.0109589 23.5869863,16.3438356 L23.5869863,15.55" id="Fill-11" fill="#FFFFFF"></path>
                <path d="M24.4609589,14.0116438 L24.4609589,9.36780822 L21.4910959,8.36575342 L22.2746575,12.8650685 L24.4609589,14.0116438 L24.4609589,14.0116438 Z M23.8239726,10.509589 L23.8239726,11.2554795 L23.680137,11.189726 C23.6732877,11.1849315 23.4616438,11.1369863 23.0938356,10.8465753 C22.4849315,10.3773973 22.4732877,9.94383562 22.4732877,9.94383562 L23.8239726,10.509589 L23.8239726,10.509589 Z" id="Fill-12" fill="#FFFFFF"></path>
                <path d="M27.1246575,12.8650685 L27.9054795,8.36575342 L24.9376712,9.36780822 L24.9376712,14.0116438 L27.1246575,12.8650685 L27.1246575,12.8650685 Z M25.5760274,10.509589 L26.9267123,9.94383562 C26.9267123,9.94383562 26.9150685,10.3773973 26.3047945,10.8465753 C25.9376712,11.1369863 25.7260274,11.1849315 25.7191781,11.189726 L25.5760274,11.2554795 L25.5760274,10.509589 L25.5760274,10.509589 Z" id="Fill-13" fill="#FFFFFF"></path>
                <path d="M20.2616438,24.7760274 C20.55,24.8808219 20.9013699,24.9027397 21.0808219,24.9027397 C21.0876712,24.8808219 21.0979452,24.8534247 21.1061644,24.819863 C21.1219178,24.7671233 21.1369863,24.7143836 21.1479452,24.6568493 C21.1986301,24.3993151 21.2164384,24.1089041 21.2205479,23.9205479 C21.0993151,23.8445205 20.9267123,23.7109589 20.8308219,23.5109589 C20.7205479,23.280137 20.5630137,23.1726027 20.3328767,23.1726027 C20.0342466,23.1726027 19.7143836,23.3506849 19.5760274,23.4349315 C19.4671233,24.0773973 19.9424658,24.6589041 20.2616438,24.7760274" id="Fill-14" fill="#FFFFFF"></path>
                <path d="M26.830137,22.3130137 C26.2787671,22.9109589 25.1986301,23.9493151 25.1472603,24.0013699 L25.0815068,24.0671233 L21.669863,24.0130137 C21.6678082,24.35 21.6130137,24.6356164 21.559589,24.8458904 C21.5513699,24.880137 21.5410959,24.9164384 21.5321918,24.9534247 L25.590411,25.6794521 C26.0123288,25.3856164 27.1739726,24.5410959 27.6260274,24.210274 C27.2979452,23.7335616 27.2664384,23.1671233 27.340411,22.7691781 C27.1246575,22.6328767 26.9609589,22.4773973 26.830137,22.3130137" id="Fill-15" fill="#FFFFFF"></path>
                <path d="M27.2924658,18.2294521 C26.5068493,19.0047945 25.7527397,19.2931507 25.0794521,19.359589 C24.9568493,19.3719178 24.8335616,19.3794521 24.7082192,19.3794521 L24.6910959,19.3794521 C24.5657534,19.3794521 24.4410959,19.3719178 24.319863,19.359589 C24.2013699,19.3493151 24.0787671,19.330137 23.9547945,19.3020548 C23.910274,19.4773973 23.8547945,19.8410959 24.0143836,20.1876712 C24.1575342,20.5013699 24.4472603,20.7342466 24.869863,20.889726 L25.0116438,20.9452055 L25.0136986,21.0972603 C25.0136986,21.1424658 25.0479452,22.1308219 26.1287671,22.4054795 C26.3054795,22.2239726 26.4657534,22.060274 26.5849315,21.9232877 C26.3636986,21.4054795 26.4794521,20.8767123 26.8006849,20.6178082 C26.7863014,20.6726027 26.6458904,21.9691781 27.689726,22.4513699 L27.8616438,22.5321918 L27.810274,22.7150685 C27.7938356,22.7691781 27.4452055,24.0246575 28.709589,24.4910959 L28.9335616,24.5753425 L28.8349315,24.7910959 C28.8123288,24.839726 28.3171233,25.9773973 29.4842466,26.6246575 L32.0171233,26.6246575 L32.0171233,24.6239726 C31.1164384,24.5143836 30.7349315,23.7938356 30.6369863,23.2842466 C30.2178082,23.2123288 29.8945205,23.0321918 29.6719178,22.739726 C29.1410959,22.0431507 29.5972603,21.4054795 29.6034247,21.3705479 C29.6027397,21.3767123 29.6034247,22.0554795 30.0246575,22.4746575 C30.2335616,22.6760274 30.480137,22.8328767 30.8534247,22.8678082 L31.0376712,22.8842466 L31.0541096,23.0719178 C31.0568493,23.1116438 31.1582192,24.0308219 32.0171233,24.1746575 L32.0143836,20.0869863 C32.0143836,19.4541096 32.2,18.8178082 32.4239726,18.2294521 L27.2924658,18.2294521" id="Fill-16" fill="#FFFFFF"></path>
                <polyline id="Fill-17" fill="#FFFFFF" points="20.4773973 20.1027397 20.4082192 22.7047945 20.7061644 22.75 21.4328767 20.2527397 21.0643836 19.4849315 20.4773973 20.1027397"></polyline>
                <path d="M28.4910959,32.0417808 C28.5136986,32.0417808 28.5390411,32.0452055 28.5630137,32.0506849 C29.0157534,32.1794521 29.130137,33.8020548 29.9232877,33.9465753 C30.0013699,33.9630137 30.0726027,33.9678082 30.1356164,33.9678082 C30.3650685,33.9678082 30.5020548,33.8705479 30.6493151,33.6972603 C30.6493151,33.6972603 30.25,33.0732877 29.9520548,32.6513699 C29.5547945,32.1 29.2472603,31.4342466 28.5089041,31.4342466 C28.4910959,31.4342466 28.469863,31.4342466 28.4520548,31.4369863 C28.2089041,31.4493151 28.0582192,31.5671233 28.0582192,31.5671233 C27.759589,31.380137 27.4808219,31.3164384 27.2294521,31.3164384 C26.7671233,31.3164384 26.4075342,31.5273973 26.2267123,31.5273973 L26.2205479,31.5273973 L24.5712329,31.3657534 C24.3136986,31.3410959 24.109589,31.0821918 24.0363014,30.9815068 C24.0184932,30.9541096 24.0082192,30.9376712 24.0082192,30.9376712 C24.0082192,30.8931507 24.0082192,30.8479452 24.0047945,30.8068493 C23.9493151,29.4643836 22.9054795,28.8910959 22.5342466,28.8815068 C22.5342466,28.8815068 22.5780822,28.6260274 22.4773973,28.5294521 L22.1130137,28.9684932 L20.9205479,28.3726027 L21.7719178,29.3623288 L21.0513699,30.1678082 C20.960274,30.259589 20.9719178,30.3835616 21.009589,30.4356164 L21.3205479,30.709589 L21.7157534,30.4712329 C21.7356164,30.4568493 21.7719178,30.4520548 21.8150685,30.4520548 C21.9239726,30.4520548 22.0883562,30.480137 22.2356164,30.480137 C22.3965753,30.480137 22.5356164,30.4458904 22.5527397,30.2958904 C22.5034247,30.7931507 22.0390411,31.6575342 22.3438356,32.3376712 L22.5691781,32.85 L21.1116438,32.6410959 L20.4294521,33.7883562 C20.2191781,34.169863 20.1856164,34.5821918 20.3883562,34.8075342 L20.6431507,35.1253425 C20.6431507,35.1253425 21.0013699,34.7479452 21.0821918,34.4986301 L20.9657534,34.3719178 C20.8684932,34.2650685 20.8726027,34.169863 20.9328767,34.0547945 L21.3609589,33.3486301 L23.0815068,33.7520548 L23.1726027,33.5979452 C23.289726,33.4047945 23.4575342,33.3472603 23.6417808,33.3472603 C23.7184932,33.3472603 23.7958904,33.3568493 23.8760274,33.3691781 C24.1965753,33.4321918 24.7212329,33.5157534 25.2472603,33.5157534 C25.8239726,33.5157534 26.3965753,33.4136986 26.7013699,33.0732877 C27.3253425,33.9924658 28.5876712,34.1390411 28.4883562,34.6061644 L28.1561644,36.1815068 C28.3760274,36.1726027 28.5876712,36.1575342 28.789726,36.130137 L29.1054795,34.4910959 C29.140411,34.3123288 29.1739726,34.0732877 29.1739726,34.0732877 C29.0520548,33.9493151 28.7568493,33.690411 28.5910959,33.3732877 C28.3678082,32.9472603 28.4883562,32.7246575 28.2815068,32.1705479 C28.2815068,32.1705479 28.3452055,32.0417808 28.4910959,32.0417808 M22.0513699,29.7383562 C21.9671233,29.7356164 21.9047945,29.6643836 21.910274,29.580137 C21.9171233,29.4993151 21.9863014,29.4349315 22.069863,29.4424658 C22.1547945,29.4458904 22.2150685,29.519863 22.2123288,29.6 C22.2041096,29.6821918 22.1335616,29.7452055 22.0513699,29.7383562" id="Fill-18" fill="#FFFFFF"></path>
                <path d="M19.7020548,33.5328767 C19.7020548,33.5328767 20.2732877,33.2986301 20.3232877,33.1328767 L20.2472603,32.9431507 C20.1931507,32.819863 20.2006849,32.6856164 20.3054795,32.6136986 L20.9205479,32.189726 L21.9486301,32.3863014 C21.9486301,32.3863014 21.7630137,32.1541096 21.7808219,31.8445205 L20.7993151,31.6376712 L19.8739726,32.1986301 C19.4760274,32.4938356 19.4479452,32.9773973 19.5787671,33.2636986 L19.7020548,33.5328767" id="Fill-19" fill="#FFFFFF"></path>
                <path d="M26.9780822,36.2027397 C27.1616438,36.1952055 27.3664384,36.1924658 27.5883562,36.1924658 C27.5883562,36.1924658 28.1178082,34.6513699 28.1479452,34.6027397 C27.8513699,34.4719178 27.2349315,34.1465753 26.9972603,33.9979452 C27.1547945,34.2321918 27.5363014,34.4986301 27.4609589,34.7054795 L26.9780822,36.2027397" id="Fill-20" fill="#FFFFFF"></path>
                <path d="M32.0171233,27.0657534 L17.3842466,27.0657534 L17.3842466,32.5438356 C17.3842466,34.7842466 19.0130137,36.1863014 21.4171233,36.1863014 C23.4246575,36.1863014 23.9547945,36.2643836 24.7013699,37.0020548 C25.2164384,36.4910959 25.6417808,36.3 26.5164384,36.2287671 L26.5369863,36.1438356 L26.9986301,34.7253425 C26.9726027,34.6931507 26.2184932,33.8410959 26.2184932,33.8410959 C25.9191781,33.939726 25.6678082,33.9561644 25.2465753,33.9561644 C24.8136986,33.9561644 24.3253425,33.9061644 23.7945205,33.8068493 C23.7410959,33.7945205 23.6910959,33.789726 23.6417808,33.789726 C23.5767123,33.789726 23.5726027,33.7945205 23.5547945,33.8267123 L23.2958904,34.2527397 L22.980137,34.180137 L21.5753425,33.8513699 L21.3828767,34.1671233 L21.4116438,34.2013699 L21.5821918,34.3890411 L21.5061644,34.6328767 C21.4034247,34.9520548 21.0678082,35.3253425 20.9657534,35.4280822 L20.6150685,35.8027397 L20.2952055,35.4006849 L20.0547945,35.1006849 C19.8020548,34.8184932 19.7438356,34.3890411 19.8863014,33.9369863 C19.8828767,33.939726 19.8773973,33.9424658 19.8719178,33.9431507 L19.4760274,34.1061644 L19.2979452,33.7205479 L19.1726027,33.4479452 C18.9568493,32.9671233 19.0363014,32.2643836 19.6171233,31.839726 L20.7472603,31.2047945 L21.8232877,31.4150685 C21.8486301,31.3123288 21.8876712,30.9445205 21.9184932,30.8506849 C21.8972603,30.8486301 21.8780822,30.8438356 21.8568493,30.8438356 L21.2369863,31.0739726 L20.6390411,30.6636986 C20.6390411,30.6636986 20.4047945,30.439726 20.6171233,30.2157534 L21.1958904,29.3424658 L19.7287671,27.510274 L21.9828767,28.4315068 L22.1335616,28.2472603 L22.4376712,27.8842466 L22.7828767,28.2116438 C22.8808219,28.3054795 22.9363014,28.4205479 22.9643836,28.5356164 C23.5849315,28.7767123 24.6986301,29.4869863 24.7965753,30.6417808 L24.4479452,30.780137 L24.4479452,30.7890411 C24.5287671,30.8828767 24.5945205,30.9212329 24.6150685,30.9253425 L26.2239726,31.0828767 C26.2650685,31.0753425 26.3157534,31.0575342 26.3726027,31.0410959 C26.5732877,30.9732877 26.8726027,30.8753425 27.2287671,30.8753425 C27.5191781,30.8753425 27.7986301,30.9410959 28.0691781,31.0664384 C28.1678082,31.0294521 28.289726,31.0020548 28.4315068,30.9924658 L28.5089041,30.990411 C29.369863,30.990411 29.7993151,31.6308219 30.1424658,32.1424658 C30.2,32.2308219 30.2568493,32.3143836 30.3164384,32.3965753 C30.6164384,32.819863 31.009589,33.4369863 31.0253425,33.4643836 L31.2027397,33.739726 L30.9863014,33.9917808 C30.8191781,34.1842466 30.5671233,34.410274 30.1356164,34.410274 C30.0465753,34.410274 29.9493151,34.4006849 29.8445205,34.380137 C29.7527397,34.3630137 29.6691781,34.3356164 29.5883562,34.3027397 C29.5767123,34.3869863 29.5582192,34.4876712 29.5431507,34.5746575 L29.2609589,36.040411 C30.9486301,35.6267123 32.019863,34.3589041 32.019863,32.5438356 L32.0171233,27.0657534" id="Fill-21" fill="#FFE60D"></path>
                <path d="M17.3835616,26.6246575 L28.7650685,26.6246575 C28.1965753,26.040411 28.2047945,25.3 28.35,24.819863 C28.1842466,24.740411 28.0472603,24.6458904 27.9253425,24.5417808 C27.4808219,24.8678082 26.1232877,25.8513699 25.7684932,26.0986301 L25.6924658,26.1493151 L21.2253425,25.3452055 L21.1349315,25.3452055 C21.0280822,25.3452055 20.8712329,25.3410959 20.6993151,25.3212329 C20.6513699,25.5219178 20.4773973,25.6589041 20.2780822,25.6589041 C20.2554795,25.6589041 20.230137,25.6568493 20.2068493,25.6527397 C20.090411,25.6321918 19.9890411,25.5732877 19.9212329,25.4760274 C19.8513699,25.380137 19.8239726,25.2664384 19.8431507,25.15 L19.859589,25.0534247 C19.3993151,24.7308219 18.9739726,24.0089041 19.1623288,23.2486301 L19.1808219,23.1684932 L19.2458904,23.1219178 C19.2554795,23.1150685 19.3321918,23.0623288 19.4479452,22.9972603 L19.1232877,22.9479452 C19.0020548,22.9267123 18.9205479,22.8136986 18.9390411,22.6945205 C18.960274,22.5739726 19.0739726,22.4876712 19.1938356,22.510274 L19.9671233,22.6321918 L20.0376712,19.9226027 L21.1876712,18.7116438 L21.9061644,20.2157534 L21.1479452,22.8226027 L21.8315068,22.9294521 C21.9520548,22.9486301 22.0335616,23.0609589 22.0157534,23.1835616 C21.9979452,23.2924658 21.9041096,23.3664384 21.7965753,23.3664384 C21.7856164,23.3664384 21.7732877,23.3664384 21.7616438,23.3650685 L21.2061644,23.2760274 C21.2136986,23.2924658 21.2239726,23.3027397 21.2308219,23.319863 C21.289726,23.4417808 21.4212329,23.5280822 21.4986301,23.5664384 L24.9027397,23.619863 C25.0479452,23.480137 25.4047945,23.1321918 25.7726027,22.7636986 C24.9342466,22.4465753 24.6294521,21.7287671 24.5794521,21.2513699 C24.1109589,21.0527397 23.7869863,20.7554795 23.6082192,20.3691781 C23.389726,19.889726 23.4671233,19.410274 23.5260274,19.1767123 C23.0719178,19.0123288 22.5945205,18.7116438 22.1068493,18.2294521 L16.9773973,18.2294521 C17.1979452,18.8178082 17.3835616,19.4541096 17.3835616,20.0869863 L17.3835616,26.6246575" id="Fill-22" fill="#FFE60D"></path>
                <path d="M22.069863,29.4424658 C21.9863014,29.4349315 21.9171233,29.4993151 21.910274,29.580137 C21.9047945,29.6643836 21.9671233,29.7356164 22.0513699,29.7383562 C22.1335616,29.7445205 22.2041096,29.6828767 22.2123288,29.6 C22.2150685,29.519863 22.1547945,29.4458904 22.069863,29.4424658" id="Fill-23" fill="#231F1F"></path>
                <path d="M31.9972603,39.3780822 L31.1541096,39.0561644 L31.3869863,38.1890411 L31.6438356,37.2445205 C31.6438356,37.2445205 30.15,38.0513699 28.0452055,38.6568493 C27.4479452,38.8267123 26.9958904,38.9047945 26.9958904,38.9047945 L26.9958904,39.5479452 C26.9958904,39.5479452 25.869863,39.7424658 24.7328767,39.7424658 L24.6678082,39.7424658 C23.5287671,39.7424658 22.4047945,39.5479452 22.4047945,39.5479452 L22.4047945,38.9047945 C22.4047945,38.9047945 21.9520548,38.8267123 21.3554795,38.6568493 C19.2513699,38.0513699 17.7589041,37.2445205 17.7589041,37.2445205 L18.0109589,38.1890411 L18.2486301,39.0561644 L17.4027397,39.3780822 L16.4650685,39.7267123 C17.539726,40.2431507 19.0294521,40.9952055 20.3924658,41.3664384 L20.0712329,42.2410959 C20.0712329,42.2410959 21.8,43.0246575 24.680137,43.0321918 L24.680137,43.0335616 L24.7191781,43.0335616 L24.7191781,43.0321918 C27.6027397,43.0246575 29.330137,42.2410959 29.330137,42.2410959 L29.0075342,41.3664384 C30.3705479,40.9952055 31.8630137,40.2431507 32.9328767,39.7267123 L31.9972603,39.3780822 L31.9972603,39.3780822 Z M17.4650685,39.7849315 L18.8520548,39.3267123 L18.4417808,37.9952055 C19.0534247,38.339726 20.4226027,38.8582192 21.2164384,39.0986301 L20.5472603,40.9287671 C19.3212329,40.5931507 18.3020548,40.2027397 17.4650685,39.7849315 L17.4650685,39.7849315 Z M24.7020548,42.5732877 C23.0910959,42.5732877 21.2534247,42.2047945 20.7109589,42.0123288 L21.5335616,39.7965753 C22.2164384,39.9952055 23.6369863,40.2054795 24.6678082,40.1993151 L24.7328767,40.1993151 C25.7630137,40.2054795 27.1815068,39.9952055 27.8678082,39.7965753 L28.6890411,42.0123288 C28.1479452,42.2047945 26.309589,42.5732877 24.7020548,42.5732877 L24.7020548,42.5732877 Z M28.8520548,40.9287671 L28.1842466,39.0986301 C28.9787671,38.8582192 30.3465753,38.339726 30.9589041,37.9952055 L30.5506849,39.3267123 L31.9356164,39.7849315 C31.0972603,40.2027397 30.0821918,40.5931507 28.8520548,40.9287671 L28.8520548,40.9287671 Z" id="Fill-24" fill="#231F1F"></path>
                <path d="M24.6986301,4.78767123 C26.4143836,4.78767123 27.7876712,5.35342466 28.5458904,5.95684932 C28.5458904,5.95684932 28.7712329,4.60684932 29.540411,3.41575342 L28.1582192,3.57260274 L27.4349315,2.04383562 L26.0458904,2.75616438 L24.6986301,1.43150685 L23.3554795,2.75616438 L21.9630137,2.04383562 L21.2410959,3.57260274 L19.859589,3.41575342 C20.6294521,4.60684932 20.8534247,5.95684932 20.8534247,5.95684932 C21.6171233,5.35342466 22.9856164,4.78767123 24.6986301,4.78767123 M21.1808219,4.10890411 L21.5636986,4.14863014 L21.7294521,3.80068493 L22.2116438,2.77260274 L23.1082192,3.23424658 L23.4547945,3.4109589 L23.7315068,3.13835616 L24.6986301,2.18356164 L25.6678082,3.13835616 L25.9452055,3.4109589 L26.2924658,3.23424658 L27.1835616,2.77260274 L27.6732877,3.80068493 L27.8356164,4.14863014 L28.2191781,4.10890411 L28.5849315,4.06438356 C28.4178082,4.44041096 28.2938356,4.79794521 28.2054795,5.09315068 C27.2376712,4.55684932 25.9815068,4.25136986 24.6986301,4.25136986 C23.4219178,4.25136986 22.1664384,4.55684932 21.1958904,5.09315068 C21.1061644,4.79794521 20.9835616,4.44041096 20.8157534,4.06438356 L21.1808219,4.10890411" id="Fill-25" fill="#231F1F"></path>
                <path d="M44.8287671,22.6945205 C47.0479452,22.6945205 47.790411,20.4479452 47.8205479,20.3520548 L48.0684932,19.559589 L47.2369863,19.5856164 L47.2335616,19.5856164 C46.9410959,19.5856164 44.4917808,19.5212329 42.7561644,17.3253425 L42.5924658,17.1219178 C41.4582192,15.6869863 40.3828767,14.3212329 38.459589,13.6986301 C38.5150685,13.6486301 38.5952055,13.5869863 38.7041096,13.5164384 C39.7246575,12.8493151 40.3184932,12.0369863 40.4678082,11.0958904 C40.6856164,9.67876712 39.7773973,8.54863014 39.7369863,8.50273973 L39.1191781,7.74246575 L38.7335616,8.64383562 C38.7075342,8.70068493 38.0589041,10.1445205 36.6931507,10.1445205 L36.5910959,10.1445205 C36.4979452,10.139726 36.4082192,10.1356164 36.3205479,10.1287671 C36.3684932,9.48493151 36.2506849,8.48835616 35.3424658,7.55205479 C34.2493151,6.42671233 32.910274,6.25821918 32.210274,6.25821918 C31.8363014,6.25821918 31.5876712,6.30410959 31.560274,6.30684932 L30.6273973,6.49109589 L31.2027397,7.24657534 C31.6541096,7.82876712 32.0636986,8.90273973 31.5780822,9.46369863 C31.4226027,9.64246575 31.1034247,9.78630137 30.7986301,9.93219178 C30.169863,10.219863 29.3116438,10.6219178 29.3116438,11.6424658 C29.3116438,12.3027397 29.8267123,12.9938356 30.760274,13.5808219 C33.5232877,15.310274 35.2273973,17.1150685 35.9636986,19.1068493 C37.1027397,22.1705479 35.6164384,23.9184932 34.1739726,24.839726 L33.5260274,25.2534247 L34.0931507,25.7719178 C34.1691781,25.8383562 34.8616438,26.4465753 35.8863014,26.5335616 C36.080137,26.5458904 36.2650685,26.5568493 36.4390411,26.5568493 C37.0952055,26.5568493 37.6541096,26.4541096 38.1089041,26.3157534 C37.9842466,26.5335616 37.8294521,26.7561644 37.6363014,26.9794521 C36.8116438,27.930137 35.7965753,28.3636986 34.3376712,28.3869863 L33.7952055,28.3958904 L33.7541096,28.9369863 C33.7486301,29.0458904 33.7082192,30.05 34.6623288,30.9034247 C34.8082192,31.0356164 34.9849315,31.1445205 35.1705479,31.2328767 C34.5226027,31.8130137 33.8650685,32.8232877 33.7376712,34.5541096 C33.6294521,35.9986301 33.2842466,36.5328767 33.2794521,36.5383562 L32.6808219,37.4493151 L33.7636986,37.4636986 C35.5534247,37.4636986 36.9232877,36.9726027 37.8732877,35.9986301 C38.4342466,35.4226027 38.7554795,34.7719178 38.9445205,34.1958904 C39.2561644,34.459589 39.6575342,34.6917808 40.1828767,34.8150685 C40.3815068,34.8616438 40.5986301,34.8863014 40.8342466,34.8863014 C41.339726,34.8863014 41.7630137,34.7794521 41.810274,34.7684932 L42.5013699,34.5856164 L42.1958904,33.9438356 C42.1739726,33.8917808 41.5965753,32.6027397 42.2178082,30.7636986 C42.4842466,29.9678082 42.6219178,29.2561644 42.6876712,28.7013699 C43.1232877,28.9273973 43.7068493,29.1136986 44.460274,29.1157534 C46.1719178,29.1157534 46.9273973,27.8431507 46.9609589,27.789726 L47.2979452,27.2054795 L46.6732877,26.9493151 C44.6328767,26.1061644 44.1815068,23.8417808 44.0910959,22.6171233 C44.2753425,22.6527397 44.4863014,22.6849315 44.7239726,22.6917808 L44.8287671,22.6945205 L44.8287671,22.6945205 Z M46.4458904,27.4924658 C46.4458904,27.4924658 45.8486301,28.5267123 44.4780822,28.5267123 L44.4609589,28.5267123 C42.8157534,28.5178082 42.1520548,27.5184932 42.1520548,27.5184932 C42.1520548,27.5184932 42.2472603,28.8178082 41.6547945,30.5719178 C40.9410959,32.6863014 41.6609589,34.1958904 41.6609589,34.1958904 C41.6609589,34.1958904 41.2767123,34.3 40.8342466,34.3 C40.6650685,34.3 40.4883562,34.2828767 40.3219178,34.239726 C38.9479452,33.9150685 38.6047945,32.669863 38.6047945,32.669863 C38.6047945,32.669863 38.7315068,36.8753425 33.8041096,36.8753425 L33.7657534,36.8753425 C33.7657534,36.8753425 34.2,36.2876712 34.3280822,34.5965753 C34.5623288,31.4760274 36.6849315,31.0472603 36.6849315,31.0472603 C36.6849315,31.0472603 35.5520548,30.9054795 35.0609589,30.4678082 C34.2931507,29.7753425 34.3472603,28.9746575 34.3472603,28.9746575 C36.0808219,28.9506849 37.2171233,28.3636986 38.0821918,27.3671233 C39.019863,26.2883562 39.1732877,25.1260274 39.1732877,25.1260274 C39.1732877,25.1260274 38.2410959,25.9671233 36.4390411,25.9671233 C36.2808219,25.9671233 36.1116438,25.959589 35.9376712,25.9424658 C35.0842466,25.8739726 34.4952055,25.3342466 34.4952055,25.3342466 C36.3719178,24.1369863 37.6876712,22.0479452 36.5205479,18.9013699 C35.5849315,16.380137 33.3383562,14.4965753 31.0753425,13.0780822 C30.3232877,12.610274 29.9034247,12.089726 29.9034247,11.6424658 C29.9034247,10.5890411 31.409589,10.5547945 32.0260274,9.84726027 C32.7390411,9.02465753 32.2917808,7.69041096 31.6746575,6.8869863 C31.6746575,6.8869863 31.8821918,6.84452055 32.210274,6.84452055 C32.8616438,6.84452055 33.9883562,7.00753425 34.9143836,7.96369863 C36.1445205,9.22945205 35.6349315,10.6089041 35.6349315,10.6089041 L35.9636986,10.6732877 C36.1609589,10.7143836 36.3568493,10.7219178 36.560274,10.7328767 C36.6041096,10.7328767 36.6493151,10.7349315 36.6931507,10.7349315 C38.480137,10.7349315 39.2787671,8.8760274 39.2787671,8.8760274 C39.2787671,8.8760274 41.1780822,11.2013699 38.3808219,13.0239726 C37.9,13.3349315 37.6876712,13.6246575 37.7431507,13.9321918 L37.7869863,14.1342466 L37.9863014,14.1691781 C40.0130137,14.7164384 41.0390411,16.1082192 42.2910959,17.690411 C44.1938356,20.0965753 46.8842466,20.1746575 47.2164384,20.1746575 L47.2527397,20.1746575 C47.2527397,20.1746575 46.6383562,22.1041096 44.8287671,22.1041096 C44.7986301,22.1041096 44.7726027,22.1041096 44.7431507,22.1020548 C43.9116438,22.0726027 43.4849315,21.7554795 43.4849315,21.7554795 C43.4849315,21.7554795 43.1609589,26.1356164 46.4458904,27.4924658 L46.4458904,27.4924658 Z" id="Fill-26" fill="#231F1F"></path>
                <path d="M40.9294521,13.9424658 C41.7568493,14.3815068 42.239726,14.969863 42.6623288,15.4910959 C43.0780822,16 43.4719178,16.489726 44.0890411,16.6931507 C44.3082192,16.7678082 44.5410959,16.8041096 44.7780822,16.8041096 C45.7034247,16.8041096 46.6335616,16.239726 46.9863014,15.4589041 L47.3410959,14.6760274 L46.4828767,14.6253425 C46.4424658,14.6246575 45.3383562,14.5239726 44.110274,13.2753425 C43.6047945,12.7630137 42.9938356,12.4938356 42.3356164,12.4938356 C41.5308219,12.4938356 40.9349315,12.8938356 40.8691781,12.9349315 L40.080137,13.4876712 L40.9294521,13.9424658 L40.9294521,13.9424658 Z M42.3356164,13.0828767 C42.7486301,13.0828767 43.230137,13.2232877 43.6863014,13.6917808 C45.1164384,15.1363014 46.4465753,15.2171233 46.4465753,15.2171233 C46.2047945,15.75 45.5041096,16.2171233 44.7780822,16.2171233 C44.610274,16.2171233 44.4417808,16.1917808 44.2746575,16.1342466 C43.2910959,15.8041096 42.9390411,14.3356164 41.2109589,13.4205479 C41.2109589,13.4205479 41.6931507,13.0828767 42.3356164,13.0828767 L42.3356164,13.0828767 Z" id="Fill-27" fill="#231F1F"></path>
                <path d="M41.3184932,21.7431507 L41.3184932,21.7732877 C40.8205479,17.7739726 37.9020548,14.8856164 34.6547945,13.130137 C34.3547945,12.9691781 34.0773973,12.8335616 33.8082192,12.7041096 C34.7965753,12.8568493 36.3890411,12.8746575 37.6178082,11.8136986 C37.6178082,11.8136986 35.7376712,13.1910959 31.8863014,11.940411 C32.9513699,12.6287671 35.0232877,13.6 36.9157534,15.1739726 C41.6431507,19.3089041 38.2609589,23.3424658 38.2609589,23.3424658 C39.960274,21.5773973 40.0308219,19.6869863 39.5308219,18.1424658 C40.4253425,19.6253425 40.9972603,21.4232877 40.9082192,23.6424658 C40.7780822,26.8205479 39.0226027,29.5691781 37.1760274,31.7773973 C36.2883562,32.8493151 36.090411,34.1657534 36.090411,34.1657534 C36.090411,34.1657534 36.4486301,33.0041096 37.4760274,31.8082192 C39.4547945,29.5020548 41.1472603,27.1068493 41.3691781,23.6547945 C41.5732877,24.2815068 42.4171233,26.0226027 43.7541096,26.6787671 C43.7541096,26.6787671 42.0732877,25.6705479 41.3184932,21.7431507" id="Fill-28" fill="#231F1F"></path>
                <path d="M16.119863,36.5383562 C16.1184932,36.5328767 15.7739726,35.9986301 15.6643836,34.5541096 C15.5349315,32.8232877 14.8773973,31.8130137 14.2280822,31.2328767 C14.4157534,31.1445205 14.589726,31.0356164 14.7363014,30.9034247 C15.690411,30.05 15.6493151,29.0458904 15.6431507,28.9369863 L15.6061644,28.3952055 L15.060274,28.3869863 C13.6054795,28.3636986 12.5883562,27.930137 11.7636986,26.9794521 C11.5726027,26.7561644 11.4178082,26.5335616 11.2917808,26.3157534 C11.7452055,26.4541096 12.3013699,26.5568493 12.9589041,26.5568493 C13.1356164,26.5568493 13.3191781,26.5458904 13.5130137,26.5335616 C14.5369863,26.4465753 15.2308219,25.8390411 15.3075342,25.7719178 L15.8746575,25.2534247 L15.2273973,24.839726 C13.7794521,23.9178082 12.2993151,22.1705479 13.4363014,19.1068493 C14.1726027,17.1150685 15.8746575,15.310274 18.6417808,13.5808219 C19.5753425,12.9938356 20.0863014,12.3027397 20.0863014,11.6424658 C20.0863014,10.6219178 19.230137,10.219863 18.6020548,9.93219178 C18.2958904,9.78630137 17.9773973,9.64246575 17.8219178,9.46369863 C17.3356164,8.90273973 17.7452055,7.82876712 18.1965753,7.24657534 L18.7760274,6.49109589 L17.8383562,6.30684932 C17.8109589,6.30410959 17.5650685,6.25821918 17.189726,6.25821918 C16.4890411,6.25821918 15.1527397,6.42671233 14.0616438,7.55205479 C13.1513699,8.48835616 13.0321918,9.48493151 13.0787671,10.1287671 C12.9910959,10.1356164 12.9020548,10.1390411 12.8089041,10.1445205 L12.7089041,10.1445205 C11.339726,10.1445205 10.6924658,8.70068493 10.6671233,8.64383562 L10.2828767,7.74178082 L9.65890411,8.50273973 C9.6239726,8.54863014 8.7130137,9.67876712 8.93424658,11.0958904 C9.08150685,12.0369863 9.6760274,12.8493151 10.6965753,13.5164384 C10.8075342,13.5869863 10.8849315,13.6486301 10.9410959,13.6986301 C9.01506849,14.3212329 7.94041096,15.6869863 6.80684932,17.1219178 L6.64315068,17.3253425 C4.90958904,19.5205479 2.45616438,19.5856164 2.16232877,19.5856164 L1.3260274,19.559589 L1.58082192,20.3520548 C1.61027397,20.4479452 2.35,22.6945205 4.57054795,22.6945205 L4.67808219,22.6917808 C4.9130137,22.6849315 5.12328767,22.6527397 5.3109589,22.6171233 C5.21849315,23.8417808 4.76575342,26.1061644 2.72534247,26.9493151 L2.10205479,27.2054795 L2.4390411,27.789726 C2.47191781,27.8431507 3.22876712,29.1157534 4.94383562,29.1157534 C5.69383562,29.1136986 6.2760274,28.9273973 6.71232877,28.7020548 C6.77876712,29.2561644 6.91506849,29.9678082 7.18287671,30.7636986 C7.80410959,32.6027397 7.2260274,33.8917808 7.20410959,33.9438356 L6.89726027,34.5856164 L7.59041096,34.7684932 C7.63630137,34.7794521 8.06164384,34.8863014 8.56575342,34.8863014 C8.80136986,34.8863014 9.01917808,34.8616438 9.21575342,34.8150685 C9.74109589,34.6917808 10.1465753,34.459589 10.4554795,34.1958904 C10.6438356,34.7719178 10.9657534,35.4226027 11.5260274,35.9986301 C12.4780822,36.9726027 13.8465753,37.4636986 15.6356164,37.4636986 L16.719863,37.4493151 L16.119863,36.5383562 L16.119863,36.5383562 Z M15.5958904,36.8753425 C10.6684932,36.8753425 10.7945205,32.669863 10.7945205,32.669863 C10.7945205,32.669863 10.4506849,33.9150685 9.07739726,34.239726 C8.9130137,34.2828767 8.7369863,34.2993151 8.56575342,34.2993151 C8.12328767,34.2993151 7.74109589,34.1958904 7.74109589,34.1958904 C7.74109589,34.1958904 8.45753425,32.6863014 7.74315068,30.5719178 C7.15273973,28.8184932 7.24863014,27.5184932 7.24863014,27.5184932 C7.24863014,27.5184932 6.58561644,28.5178082 4.9390411,28.5267123 L4.92260274,28.5267123 C3.55273973,28.5267123 2.95479452,27.4924658 2.95479452,27.4924658 C6.23767123,26.1349315 5.91643836,21.7554795 5.91643836,21.7554795 C5.91643836,21.7554795 5.4890411,22.0726027 4.65684932,22.1020548 C4.62671233,22.1041096 4.59931507,22.1041096 4.57054795,22.1041096 C2.75958904,22.1041096 2.14589041,20.1746575 2.14589041,20.1746575 L2.18287671,20.1746575 C2.51712329,20.1746575 5.20547945,20.0965753 7.10684932,17.690411 C8.35958904,16.1082192 9.38630137,14.7171233 11.410274,14.1691781 L11.6136986,14.1342466 L11.6575342,13.9321918 C11.7130137,13.6246575 11.5013699,13.3349315 11.0205479,13.0232877 C8.2239726,11.2013699 10.1232877,8.8760274 10.1232877,8.8760274 C10.1232877,8.8760274 10.9171233,10.7349315 12.7089041,10.7349315 C12.7527397,10.7349315 12.7938356,10.7328767 12.839726,10.7328767 C13.040411,10.7219178 13.239726,10.7143836 13.4363014,10.6732877 L13.7657534,10.6089041 C13.7657534,10.6089041 13.2541096,9.22945205 14.4869863,7.96369863 C15.4130137,7.00753425 16.5390411,6.84520548 17.189726,6.84520548 C17.519863,6.84520548 17.7246575,6.8869863 17.7246575,6.8869863 C17.1089041,7.69041096 16.6616438,9.0239726 17.3746575,9.84726027 C17.9910959,10.5547945 19.4952055,10.5890411 19.4952055,11.6424658 C19.4952055,12.089726 19.0760274,12.610274 18.3239726,13.0780822 C16.060274,14.4965753 13.8143836,16.380137 12.8794521,18.9013699 C11.7130137,22.0479452 13.0287671,24.1369863 14.9082192,25.3342466 C14.9082192,25.3342466 14.3171233,25.8739726 13.4630137,25.9424658 C13.2890411,25.959589 13.1212329,25.9671233 12.9589041,25.9671233 C11.1589041,25.9671233 10.2273973,25.1260274 10.2273973,25.1260274 C10.2273973,25.1260274 10.3821918,26.2883562 11.3136986,27.3678082 C12.1849315,28.3636986 13.3191781,28.9506849 15.0527397,28.9746575 C15.0527397,28.9746575 15.1075342,29.7753425 14.3410959,30.4678082 C13.8493151,30.9054795 12.7150685,31.0472603 12.7150685,31.0472603 C12.7150685,31.0472603 14.839726,31.4760274 15.0732877,34.5958904 C15.2006849,36.2876712 15.6315068,36.8753425 15.6315068,36.8753425 L15.5958904,36.8753425 L15.5958904,36.8753425 Z" id="Fill-29" fill="#231F1F"></path>
                <path d="M4.62123288,16.8034247 C4.85890411,16.8034247 5.09109589,16.7684932 5.3109589,16.6938356 C5.93013699,16.4890411 6.32328767,16.0006849 6.7390411,15.4910959 C7.16369863,14.969863 7.64109589,14.3815068 8.46917808,13.9424658 L9.32123288,13.4883562 L8.53013699,12.9349315 C8.46369863,12.8931507 7.87054795,12.4945205 7.06643836,12.4945205 C6.40684932,12.4945205 5.79452055,12.7623288 5.28972603,13.2753425 C4.06027397,14.5239726 2.95890411,14.6253425 2.91917808,14.6260274 L2.06164384,14.6760274 L2.41369863,15.4589041 C2.76780822,16.239726 3.69726027,16.8034247 4.62123288,16.8034247 M5.71232877,13.6917808 C6.16986301,13.2232877 6.65136986,13.0828767 7.06643836,13.0828767 C7.70547945,13.0828767 8.1890411,13.4205479 8.1890411,13.4205479 C6.4630137,14.3356164 6.10753425,15.8041096 5.12123288,16.1349315 C4.95821918,16.1924658 4.78972603,16.2171233 4.62123288,16.2171233 C3.89657534,16.2171233 3.19452055,15.75 2.95479452,15.2171233 C2.95479452,15.2171233 4.28356164,15.1363014 5.71232877,13.6917808" id="Fill-30" fill="#231F1F"></path>
                <path d="M8.49383562,23.6424658 C8.40136986,21.4239726 8.97328767,19.6253425 9.86917808,18.1424658 C9.36986301,19.6869863 9.43767123,21.5767123 11.1390411,23.3424658 C11.1390411,23.3424658 7.75616438,19.3089041 12.4863014,15.1739726 C14.3773973,13.6 16.4472603,12.6287671 17.5130137,11.940411 C13.6630137,13.1910959 11.7821918,11.8143836 11.7821918,11.8143836 C13.0109589,12.8753425 14.6034247,12.8568493 15.5910959,12.7034247 C15.3239726,12.8335616 15.0431507,12.9691781 14.7452055,13.130137 C11.4972603,14.8849315 8.58013699,17.7739726 8.08013699,21.7732877 L8.08013699,21.7424658 C7.3260274,25.6705479 5.64657534,26.6787671 5.64657534,26.6787671 C6.98287671,26.0226027 7.8239726,24.2815068 8.02876712,23.6547945 C8.25205479,27.1068493 9.94452055,29.5020548 11.9239726,31.8082192 C12.9506849,33.0041096 13.3123288,34.1657534 13.3123288,34.1657534 C13.3123288,34.1657534 13.1116438,32.8486301 12.219863,31.7773973 C10.3767123,29.569863 8.62260274,26.8205479 8.49383562,23.6424658" id="Fill-31" fill="#231F1F"></path>
                <path d="M23.5869863,15.55 L23.5869863,16.3438356 C23.8623288,16.0109589 24.3924658,16.0780822 24.3924658,16.0780822 L24.3924658,17.2219178 C24.3924658,17.2219178 24.3746575,17.7842466 24.1732877,18.0280822 L25.3226027,18.0280822 C25.1246575,17.7842466 25.1047945,17.2219178 25.1047945,17.2219178 L25.1047945,16.0780822 C25.1047945,16.0780822 25.6369863,16.0109589 25.909589,16.3438356 L25.909589,15.55 L23.5869863,15.55" id="Fill-32" fill="#231F1F"></path>
                <path d="M23.0931507,10.8465753 C23.4616438,11.1369863 23.6732877,11.1849315 23.680137,11.189726 L23.8239726,11.2554795 L23.8239726,10.5089041 L22.4732877,9.94452055 C22.4732877,9.94452055 22.4849315,10.3767123 23.0931507,10.8465753" id="Fill-33" fill="#231F1F"></path>
                <path d="M26.3054795,10.8465753 C26.9150685,10.3767123 26.9267123,9.94452055 26.9267123,9.94452055 L25.5760274,10.5089041 L25.5760274,11.2554795 L25.7191781,11.189726 C25.7260274,11.1849315 25.9383562,11.1369863 26.3054795,10.8465753" id="Fill-34" fill="#231F1F"></path>
                <path d="M28.7376712,7.80479452 C28.7376712,6.67191781 26.8212329,5.65205479 24.7054795,5.65205479 L24.6931507,5.65205479 C22.5780822,5.65205479 20.6616438,6.67191781 20.6616438,7.80479452 L20.7034247,8.08356164 L21.5479452,12.909589 L20.7,13.4 L18.5047945,14.6760274 L18.5123288,14.6760274 C18.5123288,14.6760274 18.0184932,14.9280822 17.789726,15.0835616 C16.9534247,15.6609589 16.7760274,16.5047945 17.2616438,16.8527397 C17.3808219,16.1650685 17.9273973,15.4472603 18.9493151,15.4472603 C19.6856164,15.4472603 20.2472603,15.8253425 20.7,16.3924658 C20.8164384,16.5349315 20.9273973,16.6883562 21.030137,16.8527397 C21.1575342,17.060274 21.2849315,17.2424658 21.4116438,17.4178082 L15.7568493,17.4178082 C16.1726027,18.2493151 16.5671233,19.130137 16.5671233,20.0869863 L16.5671233,32.5431507 C16.5671233,35.5589041 18.8965753,36.9972603 21.4171233,36.9972603 C23.3650685,36.9972603 23.6273973,36.9089041 24.7020548,37.9746575 C25.7712329,36.9089041 26.0342466,36.9972603 27.9835616,36.9972603 C30.5047945,36.9972603 32.8315068,35.5589041 32.8315068,32.5431507 L32.8315068,20.0869863 C32.8315068,19.130137 33.2260274,18.2493151 33.6438356,17.4178082 L27.9869863,17.4178082 C28.1130137,17.2424658 28.240411,17.060274 28.3678082,16.8527397 C28.4719178,16.6883562 28.5821918,16.5349315 28.6965753,16.3924658 C29.1534247,15.8232877 29.7136986,15.4472603 30.45,15.4472603 C31.4712329,15.4472603 32.0164384,16.1650685 32.1383562,16.8527397 C32.6232877,16.5047945 32.4479452,15.6609589 31.6075342,15.0835616 C31.3821918,14.9280822 30.8876712,14.6760274 30.8876712,14.6760274 L30.8952055,14.6760274 L28.6965753,13.4 L27.8513699,12.909589 L28.6965753,8.08356164 L28.7376712,7.80479452 L28.7376712,7.80479452 Z M21.4910959,8.36506849 L24.4609589,9.36780822 L24.4609589,14.0123288 L22.2746575,12.8657534 L21.4910959,8.36506849 L21.4910959,8.36506849 Z M22.1068493,18.2294521 C22.5945205,18.7116438 23.0719178,19.0116438 23.5260274,19.1767123 C23.4671233,19.409589 23.389726,19.890411 23.6082192,20.3691781 C23.7869863,20.7554795 24.1109589,21.0534247 24.5794521,21.2513699 C24.630137,21.7287671 24.9342466,22.4465753 25.7726027,22.7630137 C25.4047945,23.1321918 25.0472603,23.480137 24.9027397,23.6205479 L21.4986301,23.5664384 C21.4219178,23.5280822 21.289726,23.4417808 21.2308219,23.3191781 C21.2246575,23.3020548 21.2130137,23.2931507 21.2061644,23.2760274 L21.7616438,23.3657534 C21.7732877,23.3671233 21.7849315,23.3671233 21.7965753,23.3671233 C21.9047945,23.3671233 21.9979452,23.2931507 22.0157534,23.1835616 C22.0335616,23.0609589 21.9513699,22.9486301 21.8315068,22.9294521 L21.1486301,22.8219178 L21.9061644,20.2164384 L21.1883562,18.7116438 L20.0376712,19.9226027 L19.9671233,22.6321918 L19.1938356,22.510274 C19.0739726,22.4869863 18.959589,22.5739726 18.9390411,22.6945205 C18.9205479,22.8136986 19.0020548,22.9267123 19.1232877,22.9479452 L19.4479452,22.9972603 C19.3321918,23.0630137 19.2547945,23.1150685 19.2458904,23.1219178 L19.1808219,23.1678082 L19.1623288,23.2486301 C18.9746575,24.009589 19.4,24.7308219 19.859589,25.0541096 L19.8431507,25.15 C19.8239726,25.2671233 19.8513699,25.3808219 19.9219178,25.4760274 C19.9890411,25.5739726 20.090411,25.6321918 20.2068493,25.6527397 C20.230137,25.6568493 20.2554795,25.6589041 20.2780822,25.6589041 C20.4773973,25.6589041 20.6513699,25.5219178 20.7,25.3212329 C20.8712329,25.3417808 21.0273973,25.3458904 21.1349315,25.3458904 L21.2260274,25.3458904 L25.6924658,26.1486301 L25.7678082,26.0986301 C26.1232877,25.8513699 27.4808219,24.8678082 27.9253425,24.5410959 C28.0479452,24.6458904 28.1842466,24.7410959 28.3493151,24.819863 C28.2054795,25.3006849 28.1965753,26.040411 28.7657534,26.6239726 L17.3835616,26.6239726 L17.3835616,20.0869863 C17.3835616,19.4541096 17.1979452,18.8171233 16.9773973,18.2294521 L22.1068493,18.2294521 L22.1068493,18.2294521 Z M27.6253425,24.209589 C27.1746575,24.5410959 26.0123288,25.3856164 25.589726,25.6787671 L21.5321918,24.9534247 C21.5410959,24.9171233 21.5506849,24.8808219 21.559589,24.8452055 C21.6130137,24.6356164 21.6678082,24.3493151 21.6705479,24.0130137 L25.0815068,24.0671233 L25.1465753,24.0013699 C25.1986301,23.95 26.2794521,22.910274 26.830137,22.3130137 C26.9616438,22.4767123 27.1246575,22.6321918 27.340411,22.7691781 C27.2664384,23.1671233 27.2979452,23.7328767 27.6253425,24.209589 L27.6253425,24.209589 Z M20.830137,23.5109589 C20.9267123,23.7109589 21.0993151,23.8445205 21.2205479,23.9205479 C21.2157534,24.1089041 21.1986301,24.3993151 21.1486301,24.6568493 C21.1369863,24.7143836 21.1219178,24.7671233 21.1061644,24.819863 C21.0979452,24.8534247 21.0876712,24.8808219 21.0808219,24.9027397 C20.9013699,24.9027397 20.55,24.8808219 20.2609589,24.7760274 C19.9424658,24.6589041 19.4671233,24.0773973 19.5767123,23.4349315 C19.7143836,23.3506849 20.0342466,23.1726027 20.3335616,23.1726027 C20.5630137,23.1726027 20.7205479,23.280137 20.830137,23.5109589 L20.830137,23.5109589 Z M20.4082192,22.7047945 L20.4773973,20.1027397 L21.0636986,19.4849315 L21.4321918,20.2527397 L20.7054795,22.75 L20.4082192,22.7047945 L20.4082192,22.7047945 Z M27.5883562,36.1917808 C27.3664384,36.1917808 27.1616438,36.1952055 26.9780822,36.2020548 L27.4609589,34.7054795 C27.5363014,34.4986301 27.1547945,34.2321918 26.9972603,33.9979452 C27.2349315,34.1472603 27.8513699,34.4726027 28.1479452,34.6027397 C28.1184932,34.6513699 27.5883562,36.1917808 27.5883562,36.1917808 L27.5883562,36.1917808 Z M29.1054795,34.4917808 L28.789726,36.130137 C28.5876712,36.1582192 28.3753425,36.1726027 28.1561644,36.1815068 L28.4883562,34.6068493 C28.5876712,34.1390411 27.3253425,33.9931507 26.7013699,33.0726027 C26.3972603,33.4136986 25.8239726,33.5157534 25.2472603,33.5157534 C24.7212329,33.5157534 24.1965753,33.4321918 23.8760274,33.369863 C23.7952055,33.3568493 23.7178082,33.3479452 23.6417808,33.3479452 C23.4575342,33.3479452 23.289726,33.4047945 23.1726027,33.5986301 L23.0815068,33.7527397 L21.3609589,33.3493151 L20.9328767,34.0547945 C20.8726027,34.1691781 20.8678082,34.2650685 20.9657534,34.3726027 L21.0815068,34.4986301 C21.0013699,34.7479452 20.6438356,35.1253425 20.6438356,35.1253425 L20.3883562,34.8075342 C20.1856164,34.5821918 20.2184932,34.1691781 20.4294521,33.7876712 L21.1123288,32.6410959 L22.569863,32.8506849 L22.3438356,32.3369863 C22.0390411,31.6575342 22.5027397,30.7938356 22.5527397,30.2958904 C22.5356164,30.4465753 22.3965753,30.480137 22.2356164,30.480137 C22.0883562,30.480137 21.9239726,30.4520548 21.8150685,30.4520548 C21.7719178,30.4520548 21.7349315,30.4561644 21.7157534,30.4712329 L21.3205479,30.709589 L21.009589,30.4356164 C20.9719178,30.3828767 20.960274,30.259589 21.0513699,30.1671233 L21.7719178,29.3623288 L20.9205479,28.3719178 L22.1130137,28.9684932 L22.4773973,28.5287671 C22.5773973,28.6267123 22.5335616,28.8821918 22.5335616,28.8821918 C22.9054795,28.890411 23.95,29.4650685 24.0054795,30.8068493 C24.0082192,30.8472603 24.0082192,30.8931507 24.0082192,30.9376712 C24.0082192,30.9376712 24.0178082,30.9541096 24.0363014,30.9815068 C24.109589,31.0828767 24.3136986,31.3410959 24.5719178,31.3650685 L26.219863,31.5280822 L26.2267123,31.5280822 C26.4075342,31.5280822 26.7671233,31.3164384 27.2287671,31.3164384 C27.4808219,31.3164384 27.760274,31.380137 28.0582192,31.5671233 C28.0582192,31.5671233 28.2089041,31.4493151 28.4513699,31.4369863 C28.469863,31.4349315 28.4910959,31.4349315 28.5089041,31.4349315 C29.2472603,31.4349315 29.5547945,32.1 29.9520548,32.6520548 C30.25,33.0726027 30.6493151,33.6972603 30.6493151,33.6972603 C30.5020548,33.8712329 30.3650685,33.9678082 30.1356164,33.9678082 C30.0726027,33.9678082 30.0013699,33.9630137 29.9226027,33.9472603 C29.130137,33.8020548 29.0157534,32.1794521 28.5630137,32.0513699 C28.5390411,32.0445205 28.5143836,32.0417808 28.4910959,32.0417808 C28.3452055,32.0417808 28.2821918,32.1712329 28.2821918,32.1712329 C28.4883562,32.7239726 28.3678082,32.9472603 28.590411,33.3739726 C28.7568493,33.689726 29.0520548,33.95 29.1739726,34.0726027 C29.1739726,34.0726027 29.140411,34.3123288 29.1054795,34.4917808 L29.1054795,34.4917808 Z M20.2472603,32.9431507 L20.3232877,33.1328767 C20.2726027,33.2986301 19.7020548,33.5321918 19.7020548,33.5321918 L19.5787671,33.2636986 C19.4479452,32.9773973 19.4760274,32.4938356 19.8739726,32.1986301 L20.7993151,31.6376712 L21.7808219,31.8452055 C21.7630137,32.1547945 21.9486301,32.3869863 21.9486301,32.3869863 L20.9205479,32.189726 L20.3047945,32.6130137 C20.2006849,32.6856164 20.1931507,32.8191781 20.2472603,32.9431507 L20.2472603,32.9431507 Z M29.260274,36.040411 L29.5431507,34.5739726 C29.5582192,34.4876712 29.5760274,34.3869863 29.5883562,34.3027397 C29.6684932,34.3363014 29.7527397,34.3630137 29.8438356,34.380137 C29.95,34.4 30.0465753,34.410274 30.1356164,34.410274 C30.5671233,34.410274 30.8191781,34.1842466 30.9856164,33.9917808 L31.2027397,33.739726 L31.0253425,33.4643836 C31.009589,33.4369863 30.6171233,32.8191781 30.3157534,32.3972603 C30.2561644,32.3136986 30.2,32.2315068 30.1424658,32.1417808 C29.7993151,31.6308219 29.369863,30.9910959 28.5089041,30.9910959 L28.4315068,30.9924658 C28.289726,31.0013699 28.1678082,31.0294521 28.0691781,31.0664384 C27.7986301,30.940411 27.5191781,30.8753425 27.2287671,30.8753425 C26.8719178,30.8753425 26.5732877,30.9732877 26.3732877,31.040411 C26.3157534,31.0575342 26.2650685,31.0753425 26.2246575,31.0828767 L24.6143836,30.9253425 C24.5938356,30.9212329 24.5287671,30.8828767 24.4486301,30.7883562 L24.4486301,30.7808219 L24.7972603,30.6417808 C24.6986301,29.4869863 23.5849315,28.7767123 22.9636986,28.5363014 C22.9369863,28.4205479 22.8808219,28.3054795 22.7835616,28.2109589 L22.4369863,27.8842466 L22.1328767,28.2472603 L21.9835616,28.4321918 L19.7287671,27.510274 L21.1958904,29.3431507 L20.6171233,30.2157534 C20.4054795,30.4390411 20.6390411,30.6636986 20.6390411,30.6636986 L21.2369863,31.0739726 L21.8568493,30.8438356 C21.8780822,30.8438356 21.8972603,30.8486301 21.9178082,30.8513699 C21.8876712,30.9452055 21.8493151,31.3123288 21.8232877,31.4150685 L20.7472603,31.2047945 L19.6171233,31.839726 C19.0363014,32.2643836 18.9568493,32.9671233 19.1726027,33.4479452 L19.2979452,33.7212329 L19.4760274,34.1061644 L19.8719178,33.9431507 C19.8773973,33.9417808 19.8828767,33.939726 19.8863014,33.9369863 C19.7438356,34.3890411 19.8020548,34.8191781 20.0547945,35.1 L20.2952055,35.4006849 L20.6150685,35.8027397 L20.9657534,35.4273973 C21.0684932,35.3253425 21.4034247,34.9520548 21.5061644,34.6328767 L21.5821918,34.3890411 L21.4116438,34.2013699 L21.3828767,34.1678082 L21.5760274,33.8513699 L22.9794521,34.1808219 L23.2958904,34.2527397 L23.4636986,33.9767123 L23.5554795,33.8267123 C23.5726027,33.7945205 23.5767123,33.789726 23.6417808,33.789726 C23.6917808,33.789726 23.7410959,33.7945205 23.7945205,33.8068493 C24.3246575,33.9061644 24.8136986,33.9561644 25.2472603,33.9561644 C25.6678082,33.9561644 25.9191781,33.939726 26.2184932,33.840411 C26.2184932,33.840411 26.9726027,34.6931507 26.9986301,34.7253425 L26.5369863,36.1438356 L26.5164384,36.2294521 C25.6417808,36.3 25.2164384,36.490411 24.7020548,37.0020548 C23.9547945,36.2643836 23.4253425,36.1863014 21.4171233,36.1863014 C19.0130137,36.1863014 17.3835616,34.7842466 17.3835616,32.5431507 L17.3835616,27.0657534 L32.0164384,27.0657534 L32.019863,32.5431507 C32.019863,34.359589 30.9479452,35.6273973 29.260274,36.040411 L29.260274,36.040411 Z M32.4239726,18.2294521 C32.2,18.8171233 32.0150685,19.4541096 32.0150685,20.0869863 L32.0164384,24.1746575 C31.1582192,24.0308219 31.0575342,23.1116438 31.0541096,23.0719178 L31.0383562,22.8842466 L30.8534247,22.8684932 C30.480137,22.8321918 30.2328767,22.6760274 30.0246575,22.4739726 C29.6041096,22.0554795 29.6027397,21.3767123 29.6041096,21.3705479 C29.5979452,21.4054795 29.140411,22.0431507 29.6712329,22.7390411 C29.8945205,23.0321918 30.2178082,23.2130137 30.6363014,23.2835616 C30.7349315,23.7938356 31.1164384,24.5143836 32.0164384,24.6239726 L32.0164384,26.6239726 L29.4849315,26.6239726 C28.3171233,25.9773973 28.8123288,24.839726 28.8349315,24.7910959 L28.9335616,24.5753425 L28.710274,24.4910959 C27.4458904,24.0246575 27.7938356,22.7691781 27.8109589,22.7150685 L27.8616438,22.5321918 L27.689726,22.4506849 C26.6458904,21.9691781 26.7869863,20.6726027 26.8006849,20.6178082 C26.4794521,20.8773973 26.3636986,21.4054795 26.5849315,21.9232877 C26.4657534,22.060274 26.3047945,22.2246575 26.1287671,22.4054795 C25.0472603,22.1308219 25.0136986,21.1424658 25.0136986,21.0972603 L25.0116438,20.9452055 L24.8691781,20.890411 C24.4472603,20.7349315 24.1575342,20.5013699 24.0143836,20.1876712 C23.8541096,19.8410959 23.9109589,19.4773973 23.9547945,19.3020548 C24.0787671,19.330137 24.2020548,19.3493151 24.3191781,19.3589041 C24.4410959,19.3719178 24.5657534,19.3794521 24.6910959,19.3794521 L24.7082192,19.3794521 C24.8335616,19.3794521 24.9568493,19.3719178 25.0794521,19.3589041 C25.7534247,19.2924658 26.5068493,19.0047945 27.2931507,18.2294521 L32.4239726,18.2294521 L32.4239726,18.2294521 Z M28.4794521,14.0979452 L29.4794521,14.6760274 L29.4931507,14.6760274 L29.7445205,14.8219178 C29.180137,14.9773973 28.7486301,15.2589041 28.3863014,15.6273973 C28.3726027,15.6390411 28.3609589,15.6520548 28.3465753,15.6664384 C28.2636986,15.7541096 28.1815068,15.8493151 28.1020548,15.9472603 C28.0876712,15.9657534 28.0719178,15.9849315 28.0554795,16.0068493 C27.9787671,16.1054795 27.9054795,16.2075342 27.8356164,16.3130137 C27.8239726,16.3308219 27.8109589,16.3493151 27.7986301,16.3664384 C27.7157534,16.489726 27.6363014,16.6212329 27.5575342,16.7568493 C26.8452055,17.9780822 25.7089041,18.7075342 24.6986301,18.709589 C23.6890411,18.7075342 22.5527397,17.9780822 21.8417808,16.7568493 C21.7643836,16.6246575 21.6856164,16.4965753 21.6034247,16.3726027 C21.5869863,16.3493151 21.5726027,16.3246575 21.5575342,16.3047945 C21.4883562,16.2034247 21.4171233,16.1041096 21.3465753,16.0109589 C21.3280822,15.9849315 21.3109589,15.9657534 21.2931507,15.9431507 C21.2157534,15.8493151 21.1369863,15.7554795 21.0561644,15.6691781 C21.0390411,15.6554795 21.0273973,15.6390411 21.0130137,15.6246575 C20.6486301,15.2554795 20.2184932,14.9773973 19.6534247,14.8219178 L19.9075342,14.6760274 L19.9184932,14.6760274 L20.9205479,14.0979452 L21.9479452,13.5123288 L24.6931507,14.9993151 L24.6986301,14.9938356 L24.7068493,14.9993151 L27.4513699,13.5123288 L28.4794521,14.0979452 L28.4794521,14.0979452 Z M27.1246575,12.8657534 L24.9376712,14.0123288 L24.9376712,9.36780822 L27.9054795,8.36506849 L27.1246575,12.8657534 L27.1246575,12.8657534 Z M24.6986301,8.85753425 L21.4452055,7.57876712 C21.7219178,6.9260274 22.9979452,6.37191781 24.6986301,6.36986301 C26.4020548,6.37191781 27.6780822,6.9260274 27.9527397,7.57876712 L24.6986301,8.85753425 L24.6986301,8.85753425 Z" id="Fill-35" fill="#231F1F"></path>
            </g>
        </g>
    </g>
</svg>